<?xml version="1.0" encoding="UTF-8"?>
<svg width="20px" height="20px" viewBox="0 0 20 20" version="1.1" xmlns="http://www.w3.org/2000/svg" xmlns:xlink="http://www.w3.org/1999/xlink">
    <title>形状结合</title>
    <g id="智慧楼宇资产管理系统3.31" stroke="none" stroke-width="1" fill="none" fill-rule="evenodd" opacity="0.800000012">
        <g id="侧边栏logo" transform="translate(-29.000000, -1426.000000)" fill="#FFFFFF" fill-rule="nonzero">
            <g id="jcxx" transform="translate(29.000000, 1426.000000)">
                <path d="M13.1976772,-1.36424205e-12 L13.197416,3.99930524 C13.1989832,4.13612397 13.228761,4.63737992 13.5688552,4.95084546 C13.9784309,5.32835234 14.6738564,5.28902871 14.6738564,5.28902871 L19,5.28902871 L19,18.0770743 C19,19.1388124 18.0656554,20 16.9137236,20 L16.9137236,20 L3.08627637,20 C1.93434463,20 1,19.1388124 1,18.0770743 L1,18.0770743 L1,1.92292568 C1,0.861187574 1.93434463,-1.36424205e-12 3.08627637,-1.36424205e-12 L3.08627637,-1.36424205e-12 L13.1976772,-1.36424205e-12 Z M15.0450344,14.4435706 L4.95069922,14.4435706 C4.55392273,14.4435706 4.23394169,14.67558 4.23394169,14.9665749 L4.23394169,14.9665749 L4.23394169,16.0125836 C4.23394169,16.2996461 4.55392273,16.5355879 4.95069922,16.5355879 L4.95069922,16.5355879 L15.0493008,16.5355879 C15.4460773,16.5355879 15.7660583,16.3035785 15.7660583,16.0125836 L15.7660583,16.0125836 L15.7617919,16.0125836 L15.7617919,14.9665749 C15.7617919,14.6795124 15.4418109,14.4435706 15.0450344,14.4435706 L15.0450344,14.4435706 Z M15.0450344,10.7196225 L4.95069922,10.7196225 C4.55392273,10.7196225 4.23394169,10.9516319 4.23394169,11.2426268 L4.23394169,11.2426268 L4.23394169,12.2886355 C4.23394169,12.575698 4.55392273,12.8116398 4.95069922,12.8116398 L4.95069922,12.8116398 L15.0493008,12.8116398 C15.4460773,12.8116398 15.7660583,12.5796304 15.7660583,12.2886355 L15.7660583,12.2886355 L15.7617919,12.2886355 L15.7617919,11.2426268 C15.7617919,10.9555643 15.4418109,10.7196225 15.0450344,10.7196225 L15.0450344,10.7196225 Z M15.0450344,7.08218639 L4.95069922,7.08218639 C4.55392273,7.08218639 4.23394169,7.31419583 4.23394169,7.60519072 L4.23394169,7.60519072 L4.23394169,8.65119937 C4.23394169,8.9382619 4.55392273,9.1742037 4.95069922,9.1742037 L4.95069922,9.1742037 L15.0493008,9.1742037 C15.4460773,9.1742037 15.7660583,8.94219426 15.7660583,8.65119937 L15.7660583,8.65119937 L15.7660583,7.60519072 C15.7660583,7.3181282 15.4418109,7.08218639 15.0450344,7.08218639 L15.0450344,7.08218639 Z M9.9680019,3.13802595 L4.59232046,3.13802595 C4.39606542,3.13802595 4.23394169,3.37003539 4.23394169,3.66103028 L4.23394169,3.66103028 L4.23394169,4.70703893 C4.23394169,4.99410145 4.39606542,5.23004326 4.59232046,5.23004326 L4.59232046,5.23004326 L9.9680019,5.23004326 C10.1642569,5.23004326 10.3263807,4.99803382 10.3263807,4.70703893 L10.3263807,4.70703893 L10.3263807,3.66103028 C10.3263807,3.37396775 10.1642569,3.13802595 9.9680019,3.13802595 L9.9680019,3.13802595 Z M14.5,0.00496360007 C14.5,0.00496360007 15.1151604,-0.0784745172 15.6639229,0.43884181 C16.1418773,0.889407643 18.0094401,2.73756194 18.5582026,3.25487827 C19.1069651,3.7721946 18.9874765,4.20607281 18.991902,4.21024471 L18.991902,4.21024471 L15.0663675,4.21050546 C15.0060441,4.21096176 14.7572477,4.20502983 14.6372059,4.08091563 C14.4955898,3.95158655 14.5,3.70961601 14.5,3.70961601 Z" id="形状结合"></path>
            </g>
        </g>
    </g>
</svg>