<?xml version="1.0" encoding="UTF-8"?>
<svg width="20px" height="20px" viewBox="0 0 20 20" version="1.1" xmlns="http://www.w3.org/2000/svg" xmlns:xlink="http://www.w3.org/1999/xlink">
    <title>形状</title>
    <g id="常规台账管理" stroke="none" stroke-width="1" fill="none" fill-rule="evenodd" opacity="0.800000012">
        <g id="常规台账管理-展开" transform="translate(-30.000000, -194.000000)" fill="#FFFFFF" fill-rule="nonzero">
            <g id="侧边栏" transform="translate(0.000000, 80.000000)">
                <g id="编组-7" transform="translate(0.000000, 114.000000)">
                    <g id="形状-2" transform="translate(30.000000, 0.000000)">
                        <path d="M8.66666667,9.26252875 L10.6666667,9.26252875 C11.0348565,9.26252875 11.3333334,8.97434421 11.3333334,8.61885058 C11.3333334,8.26335694 11.0348565,7.97517241 10.6666667,7.97517241 L8.84533334,7.97517241 L10.3573333,6.51466668 C10.5257245,6.35196711 10.5914253,6.11488865 10.5296867,5.89273646 C10.4679481,5.67058428 10.2881498,5.49710858 10.05802,5.43765598 C9.82789022,5.37820338 9.58239118,5.44180615 9.414,5.60450574 L8,6.96974712 L6.586,5.60514944 C6.32459379,5.3610285 5.90878211,5.36423031 5.65144176,5.61234567 C5.39410142,5.86046103 5.39019713,6.26192944 5.64266669,6.51466668 L7.15466669,7.97452875 L5.33333334,7.97452875 C4.96514352,7.97452875 4.66666667,8.26271327 4.66666667,8.6182069 C4.66666667,8.97370052 4.96514352,9.26188505 5.33333334,9.26188505 L7.33333334,9.26188505 L7.33333334,10.5492414 L5.33333334,10.5492414 C4.96514351,10.5492414 4.66666667,10.8374259 4.66666667,11.1929195 C4.66666667,11.5484132 4.96514351,11.8365977 5.33333334,11.8365977 L7.33333334,11.8365977 L7.33333334,13.123954 C7.33333334,13.4794476 7.63181018,13.7676322 8.00000002,13.7676322 C8.36818985,13.7676322 8.66666667,13.4794476 8.66666667,13.123954 L8.66666667,11.8365977 L10.6666667,11.8365977 C11.0348565,11.8365977 11.3333334,11.5484132 11.3333334,11.1929195 C11.3333334,10.8374259 11.0348565,10.5492414 10.6666667,10.5492414 L8.66666667,10.5492414 L8.66666667,9.26188505 L8.66666667,9.26252875 Z M16,3.86206897 L16,18.0229885 C16.707244,18.0229885 17.3855211,17.7517249 17.8856181,17.2688726 C18.3857151,16.7860204 18.6666667,16.1311321 18.6666667,15.4482759 L18.6666667,5.1494253 L17.3333333,5.1494253 L17.3333333,3.86206897 L18.6666667,3.86206897 C19.4030463,3.86206898 20,4.43843804 20,5.1494253 L20,15.4482759 C19.9997496,17.3328787 18.5911843,18.9422957 16.6666667,19.2569195 L16.6666667,19.3103448 L4,19.3103448 C1.790861,19.3103448 0,17.5812377 0,15.4482759 L0,1.28735633 C0,0.576369062 0.596953672,-2.30926389e-14 1.33333334,-2.30926389e-14 L14.6666667,-2.30926389e-14 C15.4030463,-2.30926389e-14 16,0.576369074 16,1.28735633 L16,3.86206897 Z" id="形状"></path>
                    </g>
                </g>
            </g>
        </g>
    </g>
</svg>